# xmcd
#
# Track frame offsets:
#	150
#	20850
#	43870
#	61350
#	78350
#	99150
#	116300
#	128850
#	152275
#	173175
#	194925
#	216675
#	233870
#	256200
#	275560
#
# Disc length: 3952 seconds
#
# Revision: 1
# Processed by: cddbd v1.5.2PL0 Copyright (c) Steve Scherf et al.
# Submitted via: audiograbber 1.83.01
#
DISCID=d80f6e0f
DTITLE=Various Artist - Sound Of Soul - The Timeless Soul
DYEAR=1987
DGENRE=Soul
TTITLE0=Charles Beverly - Hollywood
TTITLE1=Louistine - Trying To Win Your Love
TTITLE2=True Image - It Ain't Fair
TTITLE3=C. L. Blast - If I'd Have Loved You More
TTITLE4=Full Fource - Song Within
TTITLE5=Tommy Tate - On The Real Side
TTITLE6=Lynn White - Giving It All I Got
TTITLE7=Barrett Strong - You Make Me Feel The Way I Do
TTITLE8=Ike Noble - Your Love
TTITLE9=Tyrone Davis - I'm In Love Again
TTITLE10=Mini Curry - I Think I'm Over You
TTITLE11=Jade - Sweet Love
TTITLE12=Dr. York - It's Only A Dream
TTITLE13=Charlie L. Jones - It's How Love Should Be
TTITLE14=Tyrone Curry - I'm So In Love With You Baby
EXTD=
EXTT0=
EXTT1=
EXTT2=
EXTT3=
EXTT4=
EXTT5=
EXTT6=
EXTT7=
EXTT8=
EXTT9=
EXTT10=
EXTT11=
EXTT12=
EXTT13=
EXTT14=
PLAYORDER=
